<?xml version="1.0" encoding="utf-8"?>
<!-- Generator: Adobe Illustrator 24.1.1, SVG Export Plug-In . SVG Version: 6.00 Build 0)  -->
<svg version="1.1" id="图层_1" xmlns="http://www.w3.org/2000/svg" xmlns:xlink="http://www.w3.org/1999/xlink" x="0px" y="0px"
	 viewBox="0 0 778 759" style="enable-background:new 0 0 778 759;" xml:space="preserve">
<style type="text/css">
	.st0{fill:#BA230E;}
	.st1{fill:#FCFBFA;}
</style>
<path class="st0" d="M45,0.8C33.8,4.1,20.4,8.8,12.7,18.1C-0.8,34.2,0,53.3,0,73v87v418v105c0,18.7-1.7,39,10.2,55
	C25,758,48.4,759,71,759h114h380h113c19.6,0,42.1,3,61-3.1c5.5-1.8,11.1-4.3,16-7.5c25.7-16.5,23-46.9,23-73.5v-80V178V76
	c0-19.3,1.6-38.9-11-55C752.5,2.5,727.7,0,706,0H593H214H98H63C57.2,0,50.6-0.9,45,0.8z"/>
<path class="st1" d="M254,113c0,3.7,0.4,8.6-2.7,11.4c-4.1,3.8-16,1.6-21.3,1.6c-15.4,0-30.7,0.9-46,2c-5.2,0.4-14.4-0.5-18.9,2.1
	c-8.4,4.7-3,15.3,3.9,17.8c4.1,1.5,8.7,1.1,13,1.1c8.7,0,17.3-0.3,26-1.2c11-1.1,21.9-1.8,33-1.8c-3.6,8.2-10.5,12.2-18,16.3
	c-13.6,7.5-28,12.9-42,19.5c-6.3,2.9-20.9,6.4-22.5,14.2c-2.3,11.1,14.2,10.2,20.5,9.1c18.5-3.3,36.4-13,53-21.3
	c3.5-1.7,14.5-9.7,16.5-2.7c0.8,2.7-1.7,4.5-3.5,5.9c-5.4,4.1-11.4,7.3-17,11c-15.4,10.3-30.3,21.5-44,33.9
	c-5.8,5.3-12.3,10-16,17.1h-2c-3.2-17.1-6.7-32.8-21-44.5c-6.4-5.2-13.1-8-21-10c-3.7-0.9-7.5-1.9-7.8-6.5
	c-0.5-7.8,10.3-8.7,15.8-9.9c11.2-2.5,25.6-9,26.9-22.1c1.6-15.9-8.8-25.3-22.9-30.7c-5-1.9-18.1-1.7-18.7-8.3
	c-0.6-6.5,6.1-7.1,10.7-8.3c10.1-2.6,22.8-5.3,27.7-15.7c3.8-7.9,3.8-21-2.1-27.9c-3-3.5-7.5-5.5-11.6-7.2
	c-4.9-2.1-13.8-2.6-17.4-6.5c-3.1-3.5,0.4-9.3,0.3-13.3c-0.3-12.1-11.8-14.6-21.9-12.8c-7.4,1.3-10.1,9.2-10.8,15.8
	c-0.3,3.1,0.4,6.9-2.5,9c-3.8,2.7-10.3,2.6-14.7,3.7c-8.5,2.1-16.7,6-23,12.3c-10.7,10.8-12.6,34.9,3,42.5c10.2,5,25.9,3.4,37,3.4
	c-0.1,12.2-11.9,10.6-21,14c-12.8,4.8-26.2,15.3-27,30c-0.7,14.4,12.2,22.9,25,24.9c5.3,0.8,18.5-0.6,18.7,7.1
	c0.1,5.9-5.2,8-9.7,10.1c-9.1,4.3-19.4,7.2-27,14.1c-8.6,7.9-12.2,18.7-14.5,29.8c-3.9,19.5-3,40.1-2.5,60c0.2,7.4,0.6,19.6,8,23.5
	c3,1.6,6.6,1.5,10,1.4c2.7-0.1,5.5-0.3,8-1.6c11.5-5.6,7.2-19.5,7-29.4c-0.1-5.1-1.8-9.9-2-15c-0.3-9.9,1.5-19.2,1.9-29
	c0.5-11.5-0.4-24.5,11.1-31.5c2.8-1.7,5.9-2.7,9-3.5c0,12.4-1.3,24.6-1,37c0.4,15.7,2,31.2,2,47v31c0,5.6-0.6,11.5,0.5,17
	c1.7,8.9,9.2,8,16.5,8c3.6,0,7.8,0.4,10.9-1.7c3.9-2.7,4.1-7,4.1-11.3c0-8,0-16,0-24c0-35.4-4-70.6-4-106
	c10.9,4.8,14.4,14.4,17.4,25c4.5,16,7.5,33.3,7.6,50c0,8.5-0.4,21.5,4.1,29c3.7,6.2,14.3,10.4,20.9,6.2c3.9-2.5,6.1-7.8,7.3-12.1
	c2.6-9.2,0.5-19.9-0.9-29c-1.3-8.7-1.9-17.5-4.3-26c5.6,2.6,10.4,5.9,17,4.8c6.5-1.1,12.3-7.5,17-11.8c8.8-8,17.8-15.6,27-23.1
	c5.6-4.6,11.8-9.1,18-12.9c2.3-1.4,5.8-3.6,8.3-1.4c7.6,6.6,0.3,16.8-5.3,20.9c-19.7,14.3-38.4,32.4-53.6,51.4
	c-6.4,8-13.9,17.2-17.4,27c-3.8,10.6,3.2,21.5,15,16.9c11.7-4.6,19.2-17.5,26.8-26.9c6.5-8,13-16.1,19.7-23.9
	c4.1-4.8,8.8-10.4,14.4-13.1c-3.4,13.9-6.1,28.2-10,42c-2.8,9.6-5.3,20.3-10.5,29c-2.9,4.8-9.9,9.8-9.2,16c1,9.5,17.3,13.3,24.7,9.9
	c9.1-4.1,15.8-18.3,19.7-26.9c8.1-17.6,14-37.8,16.1-57c1.3-12-0.3-25.3,2.6-37c2.5-10.3,14.5-18.2,23.6-22c0.4,19.1,4,37.8,4,57
	c0,16-1.2,32.3-4.5,48c-1.6,7.8-7.8,16.9-6.3,25c0.9,4.9,5.4,6.7,9.8,7.9c10.2,2.7,21-1.9,24.9-11.8c3.4-8.6,3.7-17.9,5.4-27
	c2-10.6,4.5-22.2,4.5-33c0-4-1.4-8-1.7-12c-0.4-6.3,0.5-12.7-0.3-19c-0.4-3.4-1.7-6.6-2.4-10c-1-5.8-0.4-11.3-2.1-17
	c-3.9-13-5.3-30.6-21.3-34.5c-14.6-3.5-23.4,8.5-35,14.5c-1.7-13-6.9-25-13.8-36c-2.8-4.5-6.9-8.2-9.2-13c6.5-3.3,10.1-11,18-11.8
	c3.9-0.4,8,0.8,12,0.8c11.7,0.1,23.3,0,35,0c7.6,0,16.5,0.9,23-3.8c10.7-7.9,0.3-16.5-9-17.9c-19.5-2.9-39.6,1.3-59,1.7
	c1.5-6.7,4.1-12.9,3.9-20c-0.1-3.5-1.8-6.6-2.5-10c-0.7-3.6-0.1-7.4-0.7-11c-0.7-4.8-2.6-9.1-2.7-14c16.3,0,34,3.5,50-0.8
	c10.6-2.8,15.6-12.4,4-18.2c-11.9-6.1-27.1-4-40-4c-14.2,0-28.8-0.9-43,0.1c-14.3,1-28.6,2.9-43,2.9c0.2-7.7,4.2-17.5,1.3-25
	c-4.7-12.1-21.6-8.6-28.9-1.6c-5.4,5.2-4.8,13.7-5.8,20.6c-1.2,9-0.6,18.1,0.4,27c1.8,16,3.4,28.4,19.1,36.7
	C212.7,118.6,235.9,113,254,113"/>
<path class="st1" d="M461,80c-12.3-1.5-24.9,0-37,1.8c-5.1,0.7-11.4,0-16,3c-12.3,7.9-9,28.1,4,33.4c3.4,1.4,7.4,0.9,11,0.9
	c9,0,18-1,27-1c-2,14.9-10.2,33.2-19.5,45c-6.8,8.6-14.8,15.2-20.2,25c-4.9,8.9-8.2,18.9-9.1,29c-0.3,3.3,0.4,6.7,0.1,10
	c-1.7,19.5-2,38.9,3.2,58c4.7,17.2,21.2,30.2,38.5,33.7c5.9,1.2,12,2.2,18,3c4.8,0.6,9.4,0.4,9.9,6.3c0.6,6.9,0.1,14.1,0.1,21
	c0,2.7,0.3,6.2-2.3,8c-4.1,2.7-12.9,1-17.7,1c-8,0.1-16,1.3-24,1.9c-6,0.4-13.5,0.2-19,3.1c-12.6,6.6-16.7,24.7-3,32.1
	c9.7,5.2,23.5,2.9,34,1.6c10.6-1.3,21.3-2.7,32-2.7v94c0,17.7-1.5,36.5,1.2,54c2.8,18.2,29.4,25.7,39.1,9c6.3-10.9,2.8-25.2,2.8-37
	c0-29.5-2.1-59.3-2.1-89c0-7-0.9-14-1-21c-0.1-2.5-0.8-5.6,0.2-8c2.8-6.7,12.9-6,18.8-6c13.4-0.2,28.9-1.8,42-5
	c6.8-1.7,12.9-2.7,13.7-11c0.6-6.9-5.4-11.9-10.7-15.4c-6-4-12.1-3.6-19-3.6c-8.7,0-17.3-0.2-26,0c-4.4,0.1-11.7,2.7-15.6,0
	c-2.5-1.8-1.8-6.3-2.1-9c-0.8-8.7,0.7-18.2,0.7-27c6.9,0,12.5-0.8,19-3.3c8.4-3.2,16.1-6,23-12c16.4-14.4,17.4-37.9,20.2-57.7
	c0.4-2.9,2.3-5.2,2.7-8.1c0.9-6.3-1.1-11.8-1.5-17.9c-0.8-13.8-1.7-27.3-10.2-39c-9.1-12.6-23.1-14.9-37.2-17.4
	c-4.1-0.7-9-0.4-12.9-2.2c-7-3.3-3.2-13.1-7.7-17.9c-2.9-3.1-8.5-3.3-12.4-2.8c-9.9,1.2-15.7,5.9-22,13.3c2.1-9,8-18.8,12.3-27
	c1.9-3.6,3.8-7.7,7.7-9.5c8.8-4,22.5-1.5,32-1.5c10.8,0,22.4,1,33-1.4c6.2-1.4,11.3-6.2,11.9-12.6c0.3-3.4,0.5-7.7-0.5-11
	c-2.2-6.9-8.8-9.9-15.3-10.9c-11.3-1.6-22.6-1.1-34-1.1c-3.7,0-13.5,1.8-16.4-0.8c-3-2.8,0.5-9.9,1-13.2c1.7-10.4,4.3-24.3-0.5-34
	c-7.1-14.6-27.4-15.5-36.2-2c-3.2,5-2.7,10.4-3.5,16C463.8,56.7,462.5,68.3,461,80"/>
<path class="st1" d="M595.1,63.9c-3.6,1.3-5.1,5.8-6.3,9.1c-3.8,10.1-2,24.2,6.3,31.8c9.5,8.8,24.5,4.4,35.9,3.3
	c5.5-0.5,11.4-2.4,15.8,2.1c4.3,4.5,1.9,9.5,1.4,14.9c-0.7,6.6-0.2,13.4-0.2,20c0,20.7-1.9,41.3-1,62c0.6,14.4,3.1,30.6,0.8,45
	c-1.1,7-14.3,5.9-19.9,6c-13,0.2-32-0.5-43,7.3c-4.9,3.4-9.9,8.3-9.8,14.7c0.1,7.2,7.4,13.3,13.8,15.1c13.4,3.7,26.6,0.5,40-0.1
	c5.1-0.2,14.8-4.4,17.4,2.1c2,5,0.6,12.7,0.6,17.9v40c0,46.7-1,93.3-1,140c0,10.1,1.8,20.1,1.8,30c0,39.3,0.4,78.7,2.2,118
	c0.6,12.9,2.9,25.9,3,39c0.1,13.6,1.4,30,5.6,43c1.6,5,6.2,12,12.4,10.5c8.3-1.9,10.6-14.7,12.4-21.5c6.2-22.6,8-47.6,8.6-71
	c0.6-24.6,1.9-49.4,2.9-74c1.3-29.7,0-59.3,0-89c0-44.4,0.6-88.8-1.6-133c-0.7-13.2-0.4-26.7-0.4-40c0-3.9-1.4-11.5,2.3-14
	c3.9-2.6,10.4-0.1,14.7,0c9.4,0.2,18.6,1,28,1c4.3,0,8.9,0.5,13-1c7.1-2.5,14.4-9,14.7-17c0.3-7-6.1-13-11.7-16.1
	c-13.3-7.2-27.6-3.9-42-3.9c-5,0-16.9,2.3-18.7-4.1c-1-3.6-0.3-8.2-0.3-11.9v-24c0-24.4-0.6-48.7-1-73c-0.1-8-1.6-16-2.1-24
	c-0.2-3.6-1-7.7,1.7-10.7c3.4-3.8,10.9-2.3,15.4-2.3c9.9,0,23.9,1.1,33-3.2c4.6-2.2,9.9-6.6,10.9-11.8c0.5-2.9,1.4-7.2,0.5-10
	c-2.6-8-14.7-13-22.4-13.8c-8-0.9-16,1.7-24,1.8c-25.3,0.3-50.7,1-76,1c-6.3,0-15,1.5-21-0.6C603.8,67.9,600.1,62.1,595.1,63.9z"/>
<path class="st0" d="M98,69.4c-6.9,0.9-15.2,1.4-20.9,6.1c-4.4,3.6-5.4,9.8-0.8,13.6c7.5,6.3,25.5,4.7,34.7,3.6
	c5.2-0.7,11.6-1.8,15.7-5.3c4.5-4,4-10.9-0.8-14.4C118.6,67.8,106.3,68.3,98,69.4 M209,73c0,5.3-0.8,11.6,3.4,15.7
	c3.4,3.4,9.1,3.3,13.6,3.3c9.7,0,19.3,1,29,1c-0.3-7.1-2-13.8-2-21C238.3,72.6,223.7,73,209,73 M93,140.5c-5.9,1-13.2,2.4-17.3,7.1
	c-3.5,4-3.3,10.6,1.5,13.5c3.7,2.2,8.8,2,12.9,2c8,0,16.1,0.4,24-1.1c4-0.7,8.7-1.7,11.8-4.5c4.6-4.1,3.4-10.4-1.8-13.3
	C115.9,139.5,102,138.9,93,140.5 M469,163c4.2-0.7,4.8-2.9,5-7C470.8,157.7,469.7,159.4,469,163 M472,226v-24c0-2.6,0.8-7.1-1.6-9
	c-2.8-2.2-7.5,0.3-10.4,1.2c-11.1,3.8-17.8,8.4-18.9,20.7c-0.3,2.9-2.1,8.8,0.5,11c2,1.6,6,1.1,8.4,1C457.4,226.8,464.6,226,472,226
	 M536,226c1.6-8.9,5.6-24.2-4.1-29.9c-2.4-1.4-5.3-1.8-7.9-2.1c-2.8-0.4-6.9-1.7-9.5,0c-4.9,3.4-2.6,17.7-2.5,23
	c0,2.2-0.2,5.4,1.7,7c1.6,1.3,4.3,1.1,6.3,1.3C525.4,226,530.6,226,536,226 M513.6,258c-2.4,1.9-1.6,6.4-1.6,9c0,6.8-3.5,30,9,21.1
	c7.2-5.2,14.4-18.7,11.7-27.9C531.3,255.6,516.8,255.5,513.6,258 M471,290c1.4-7.6,1-15.3,1-23c0-2.4,0.6-6.3-1.6-8
	c-3.1-2.4-11.6,0-15.4,0c-3.8,0-10.4-1.2-13.4,1.7c-2.4,2.3-1.7,7.2-1.6,10.3C440.8,287.6,457.6,290,471,290z"/>
<path class="st1" d="M332,690c2.6,11.5,5.3,26.6,16,33.4c16.2,10.4,28.9-9.8,25.9-24.4c-4.8-23.1-15.9-48.6-30.8-67
	c-6.1-7.5-17.8-16.2-25.7-6c-1.2,1.5-1.9,3.1-2.2,5c-2,11,5.4,22.2,6.8,33c-5.7,0.1-10.5,1.9-16,3c-2,0.4-4.7,1.3-6.6,0.1
	c-3.2-2.2-1.4-11.6-1.4-15.1v-30c0-5.1-0.7-11.1,1.1-15.9c2.3-6,10.8-3.9,15.9-4.1c11.6-0.5,27.1,2.3,35.3-9
	c5.5-7.6,4.1-20,5.3-28.9c2.1-15.8,0.8-32.2,0.4-48c-0.3-11.3,0.9-22.8-0.6-34c-1.3-10.2-0.4-18.8-8.6-26.7
	c-5.1-4.9-12.8-7.1-19.8-6.1c-5.1,0.8-8.7,3-14,2.4c-4.9-0.6-10.5,0.3-13.3-4.6c-3.5-6-2.7-13.3-2.7-19.9c0-14.2,1.9-28.9,0.9-43
	c-0.7-9.5-5-20.3-15.9-21c-7.7-0.4-16.1,2.1-19,10c-1.5,4.1-1,8.8-1,13c0,14.6,2.1,28.5,1.1,43c-0.4,5.4,0.3,12-2.4,16.9
	c-2.7,5.1-10.6,5.5-15.7,6.2c-4.6,0.7-9.3,3.8-14,3.5c-7.5-0.4-12.5-6.4-20-1.2c-1.4,1-2.6,2.3-3.7,3.6c-1.3,1.5-2.4,3.2-3.3,5
	c-2.4,4.7-2,9.9-2,15c0,8.7,0,17.3,0.8,26c2,20.5,1.2,41.4,2.1,62c0.5,11.1-0.4,24.2,8.2,32.8c7,7,18.6,7.2,27.8,5.3
	c4.3-0.9,13.9-3.3,17,1.2c3.2,4.6,2,13.4,2,18.7c0,14.6,0.6,29.4,0,44c-0.4,8.8-11.1,8.2-18,9.6c-5.3,1.1-10.6,2.4-16,3.4
	c-11.2,2-25.8,2.2-30.1,15.1c-3.7,10.9-0.4,28.8,14.1,27.9c10.9-0.7,21.3-5.3,32-7.3c23.3-4.3,48.9-7.6,71-16.4
	C319.7,697.6,325.7,693.4,332,690 M103,375.4c-17.5,2.4-35.4,3.2-53,4.5c-7.1,0.5-16.2,2.8-14.8,12.1c1.8,11.9,24.3,8.6,32.8,7.4
	c27.3-3.7,55.5-2.4,83-2.4c11.5,0,24.9,3.4,36-0.2c6.2-2,9.5-9.1,4.6-14.5c-2.4-2.6-6.2-3.3-9.6-3.8c-17.7-2.8-36-3.4-54-3.4
	C119.8,375,111.2,374.3,103,375.4 M106,410.4c-16.7,2.6-37.7,2.7-52,13.2c-15.3,11.3-12.5,36.9,4,45.5c9.8,5.1,21.4,3.8,32,3.8
	c21.8,0,45.5,0.7,67-3.1c15.7-2.8,26.7-14.4,29.5-29.9c1.2-6.8-0.1-16.5-5.9-21c-5.6-4.4-12.9-5-19.7-6.3
	C144.1,409.5,123.2,407.7,106,410.4z"/>
<path class="st0" d="M109,430.4c-8.8,1.2-22-2.3-29.9,1.9c-9.3,5-1.4,15.9,5.9,17.4c8.5,1.8,17.4,1.2,26,1.2c10.2,0,20.9,0.4,31-1.5
	c3.3-0.6,7-1.6,9.4-4.1c4.6-4.8,0.8-11.3-4.4-13.6c-5.3-2.3-11.4-1.9-17-1.9C123.1,430,115.9,429.5,109,430.4 M299,478
	c-0.9,11.7-1,23.2-1,35v24v18c0,2.6-0.6,6.3,0.6,8.7c2.3,4.7,15.8,2.5,18.4-1.1c3.2-4.5,1.7-12.4,2.1-17.6c1-14.7,0.9-29.3,0.9-44
	c0-5.9,1.4-13.9-2.7-18.8C313,477,305.1,478,299,478 M261,479c-6.1,0-15.9-0.6-20.4,4.5c-3.4,3.9-1.6,13.6-1.6,18.5
	c0,14.1,0,28,0.9,42c0.3,4.9-1.5,12.4,1.1,16.8c2.3,3.8,16.9,7.8,19.4,2.9c1.1-2.2,0.6-5.3,0.6-7.7v-18c0-7.6,1.1-15.4,0.9-23
	C261.6,503,261,491,261,479z"/>
<path class="st1" d="M70,585l30-1c0,15,1,30,1,45c0,14.9-1,30.1,0.1,45c0.3,4,1.5,8,1.8,12c0.6,8.9-0.8,18.1,0.3,27
	c1.6,13.1,16.6,18.8,27.8,12.6c9.9-5.5,6.2-26,6-35.6c-0.1-4.8-1.8-9.2-2-14c-0.9-31.3,0-62.7,0-94l23,1c0,14.6,1.4,28.5,2.8,43
	c1.4,14,2.1,28.6,6.9,42c3.9,11,11.6,17,23.3,15.8c2.4-0.2,5.5-0.5,7.6-1.8c6.6-4.4,5.1-13.6,3.6-20c-4.1-17.8-7.6-35.9-9.9-54
	c-0.7-5.3,0-10.7-0.4-16c-1.3-18.8-1.9-38.2-1.9-57c0-12,2.9-25.5-4.6-36c-8.1-11.4-20.6-13.8-33.4-16.2c-21.1-3.9-43-0.2-64,2
	c-10.1,1.1-21.7,1.4-31,6c-9,4.4-14.4,12-17.9,21.2c-4.5,11.6-2,21.1-1.2,33c1,14.5,0.5,29.6-1.2,44c-2.8,23.4-5.8,46-11.6,69
	c-2,7.8-6.8,19.1,2,24.8c12.1,7.8,26-2.2,30.3-13.8c4-10.6,4.7-21.9,6.2-33C66,619.3,70,602.1,70,585z"/>
<path class="st0" d="M105,504c6.3,13,22.8,13.2,29,0H105 M70,514v34c10.1-2,18.4-11.9,28-16v-2C89.3,524.6,80.7,514.6,70,514
	 M137,532c8.4,4,15.3,10.7,24,14l1-32c-5.8,1.6-10.9,6-16,9.3C142.1,525.8,138.4,527.4,137,532 M91,563c7.4,0,14.7-0.9,22-1
	c6.6-0.1,13.7,0.9,20-1v-2c-6-3.7-11.9-11.8-19-13.3c-3.1-0.6-5.7,1.3-8,3C100.8,552.3,93,556.8,91,563z"/>
</svg>
