<svg xmlns="http://www.w3.org/2000/svg" viewBox="0 0 141.61 301.2"><defs><style>.cls-1,.cls-3{fill:#921d22;}.cls-2{fill:#fff;}.cls-3{writing-mode:tb;text-orientation:upright;glyph-orientation-vertical:0deg;font-size:41.32px;font-family:SourceHanSerifSC-Heavy-GBpc-EUC-H, Source Han Serif SC;}</style></defs><g id="图层_2" data-name="图层 2"><rect class="cls-1" width="106.63" height="301.2" rx="23.49"/></g><g id="图层_1" data-name="图层 1"><path class="cls-2" d="M177.93,462.83c0-2.05-.09-4,0-5.93a6.57,6.57,0,0,1,.84-2.65,3.76,3.76,0,0,1,3.35-1.47,2.57,2.57,0,0,1,2.52,1.45,17.87,17.87,0,0,1,1.45,4,14.14,14.14,0,0,1,0,3.56c0,.66.25,1,1.27,1,2.46,0,4.91.11,7.37.16,2.63,0,3.79.67,3.9,2.12.14,1.64-1.2,2.87-3.57,3s-5,.12-7.51.09c-1.12,0-1.52.19-1.47,1,.09,1.49,0,3,0,4.5,1.59.23,3.09.46,4.59.65,4.8.62,7.42,2.6,8.15,5.79a23,23,0,0,1-.92,13.16c-1.24,3.43-4.66,5.29-9.56,6.18-2.31.42-2.3.47-2.32,2,0,1.37,0,2.74,0,4.23h1.14c3.54,0,7.09,0,10.63.15a5,5,0,0,1,3.66,1.56c1.07,1.19.32,2.57-1.72,2.8-2.83.31-5.68.52-8.53.74-1.84.14-3.7.23-5.52.34,0,.93,0,1.78,0,2.62q.33,12,.67,23.89a6.9,6.9,0,0,1,0,1c-.16,1.36-1.13,2.15-2.83,2.33-2.09.22-3.55-.26-4.23-1.57a6.07,6.07,0,0,1-.82-2.74c-.07-8.15-.05-16.3-.05-24.44v-1h-6.91c-1.82,0-3.64,0-5.46,0s-3-.77-3.21-2c-.26-1.57.6-2.68,2.58-2.87,3-.29,6.06-.42,9.1-.58,1.16-.06,2.34,0,3.57,0v-5.63c-1.94-.28-3.81-.49-5.63-.83-5.3-1-8.12-3.46-8.76-7A28.72,28.72,0,0,1,164,480c.73-2.79,3.11-4.7,7.41-5.31,2.13-.31,4.27-.56,6.61-.86v-5.62c-1.32.08-2.71.22-4.1.24-2.22,0-4.45.05-6.67,0-1.9-.07-2.57-.56-3-1.86-.34-1.12.14-2.13,1.74-2.5a60.8,60.8,0,0,1,7-1.09C174.62,462.83,176.33,462.88,177.93,462.83Zm-6.61,26.55c-1.45,3.1,1.21,5.28,6.7,5.38v-5.59Zm6.78-5.56v-4.88c-5.43,0-7.76,1.75-6.82,5.1Zm13.69,0c0-1,.05-1.9,0-2.8s-.56-1.65-2-1.87c-1.13-.18-2.3-.23-3.68-.35v4.82ZM186,489v5.42c2,.12,3.17-.11,3.41-.74.58-1.54,1.07-3.09,1.61-4.68Z" transform="translate(-148.93 -255.72)"/><path class="cls-2" d="M224.68,489.48c2.63.08,5.12.13,7.61.25a36.06,36.06,0,0,1,4.05.4c1.85.29,2.91,1.15,2.95,2.2.05,1.54-1.16,2.46-3.57,2.51-2.23,0-4.47-.06-6.7-.08-1.49,0-3,0-4.62,0v40a26.51,26.51,0,0,1,0,4.18c-.22,1.45-1.5,2.17-3.32,2.24-2.08.08-3.35-.41-3.87-1.9a13.3,13.3,0,0,1-.75-4.43c0-12.91.16-25.82.26-38.73V495c-1.82.1-3.52.24-5.23.27-2.41,0-4.83,0-7.24-.05-3-.1-3.94-.83-3.9-2.62,0-1,.76-1.67,2.1-1.9,2-.33,4-.6,6-.74,2.8-.19,5.61-.24,8.27-.34,0-2.64,0-5.13,0-7.63,0-.21-.45-.5-.78-.61-1.39-.46-2.79-.9-4.23-1.28-3.9-1-6-3-6.6-5.7C204,469.6,203.21,464.8,204,460a7,7,0,0,1,2-3,3.51,3.51,0,0,1,3.09-.88,2.77,2.77,0,0,1,2.48,1.77,27.32,27.32,0,0,1,.48,3.82c.32,3.24.62,6.49,1,9.74a3.9,3.9,0,0,0,.62,1.39c1.89,3.28,5.75,4,10.59,3.08,2.59-.52,3.24-2,3.22-3.66,0-4.42-.17-8.85-.17-13.27a4.53,4.53,0,0,1,.79-2.36,3.23,3.23,0,0,1,3-1.1c1.32.09,2.4.48,2.81,1.36a8.07,8.07,0,0,1,.8,2.48,75.45,75.45,0,0,1,.66,8.86c-.05,3.62-1.62,7-4.38,10.16a5.19,5.19,0,0,1-3,1.62c-3.31.73-3.28.78-3.28,3.13Z" transform="translate(-148.93 -255.72)"/><path class="cls-2" d="M205.66,280.91h1.56c6-.1,11.94-.26,17.91-.29,3.18,0,6.36.16,9.54.29a3.78,3.78,0,0,1,3,1.5c.9,1.24.28,2.52-1.69,2.87a34.87,34.87,0,0,1-5.25.42c-2.36.07-4.72,0-7.35,0,0,4.57,1.76,9.27.5,14.09.72.05,1.25.13,1.77.11,3.28-.08,6.55-.21,9.83-.27a23.43,23.43,0,0,1,3.24.24c1.28.17,2.33.58,2.43,1.59s.06,2.2-1.61,2.68a16.76,16.76,0,0,1-4.33.59c-3.83,0-7.66-.09-11.48-.19a2.06,2.06,0,0,0-1.85.69c-.68.82-1.55,1.57-2.24,2.39-.23.27-.36.77-.14,1,2.81,2.55,3.32,5.63,4.5,8.55a22.94,22.94,0,0,1,.83,3.21c1.27-.8,2.41-1.64,3.73-2.32,3.48-1.8,6.52-1.22,7.94,1.58a27.14,27.14,0,0,1,2.82,10.12c.28,3.5.61,7,.67,10.52a34.27,34.27,0,0,1-.67,6.19c-.45,2.76-1,5.5-1.61,8.24a3.92,3.92,0,0,1-.7,1.38c-1,1.37-2.67,1.83-4.88,1.38a2.33,2.33,0,0,1-2-2.88c2-5.49,2.45-11.09,2.57-16.7a85.28,85.28,0,0,0-.84-10.31c-.15-1.43-.48-2.84-.77-4.5-1.49,1-2.73,1.92-4.11,2.72a3,3,0,0,0-1.69,2.53c-.5,5-1,10.1-1.82,15.12a33.71,33.71,0,0,1-6,14c-.89,1.26-3.83,1.85-5.67,1.18-.92-.34-1.92-2-1.49-2.76a17.58,17.58,0,0,1,2.05-3c1.45-1.61,1.63-3.42,2.07-5.17,1.1-4.38,2.05-8.79,3.05-13.18a.79.79,0,0,0-.21-.74c-1.44,1.48-3,2.9-4.29,4.44-2.4,3-4.58,6-6.92,9a14.1,14.1,0,0,1-2.28,2.37,5,5,0,0,1-2.13.88c-1.58.26-2.23-.07-2.73-1.12a3.17,3.17,0,0,1,0-3.22,71.49,71.49,0,0,1,14.19-17,18.36,18.36,0,0,1,2.52-1.8c2-1.22,3-2.62,2.46-4.47a17,17,0,0,1-.39-2.39,26,26,0,0,0-6.37,3.82c-3.14,2.69-6.14,5.46-9.2,8.19-1.49,1.34-2.54,1.46-4.62.56-1.25-.54-1.83-1.74-1.16-2.75a9.88,9.88,0,0,1,1.76-2c3.58-3.12,7.15-6.25,10.89-9.28a46.15,46.15,0,0,1,5.26-3.31c2.39-1.42,2.42-1.41.73-3.18-3.12,1.45-6.2,3-9.4,4.33-1.93.85-4,1.53-6.08,2.25a8.9,8.9,0,0,1-1.82.37c-1.55.19-3.19-.24-3.71-.94a2.06,2.06,0,0,1,1-2.83c1.32-.7,2.75-1.3,4.14-1.94,3.51-1.63,7.11-3.19,10.52-4.91a12.76,12.76,0,0,0,4.82-4.33c-2.26.12-4.35.28-6.46.33-3.59.09-7.18.16-10.77.13-2.08,0-2.84-.79-3.17-2.79-.14-.82.49-1.42,2.33-1.69a62.33,62.33,0,0,1,6.73-.64c4.18-.18,8.38-.24,12.57-.34l1.13-.07.26-3.28c-2.05,0-4,.05-5.94,0s-3.63-.18-5.43-.37c-2.69-.29-4.62-1.4-5.62-3a13,13,0,0,1-1.86-4.54,34.24,34.24,0,0,1,.14-12.32c.37-1.92,2-3,4.09-3.22,1.5-.12,2.75.25,3.15,1.2a7.5,7.5,0,0,1,.52,2.95A40.54,40.54,0,0,1,205.66,280.91Zm11.26,4.94c-2.67,0-5.07,0-7.47,0-4.24,0-4.69.4-3.67,3.19a2.56,2.56,0,0,0,2.06,1.7,52.18,52.18,0,0,0,9.08.49Z" transform="translate(-148.93 -255.72)"/><path class="cls-2" d="M183.45,313.37a11.15,11.15,0,0,0-.54,2.07,1.22,1.22,0,0,0,.65,1,8.46,8.46,0,0,0,2,.75,9.73,9.73,0,0,1,5.42,3.44,20.31,20.31,0,0,1,4,9.34c.86,4.78,1.54,9.58,2.08,14.38a7.87,7.87,0,0,1-.85,3.66,2.46,2.46,0,0,1-2.78,1.39c-2-.18-3.55-1.06-3.64-2.09-.28-3.14-.61-6.27-.76-9.41a55.12,55.12,0,0,0-2.5-12.85c-.49-1.63-1.67-2.65-3.8-3.46a7.81,7.81,0,0,0-.05.81q.44,15.06.87,30.11a13.34,13.34,0,0,1-.07,3.46c-.33,1.44-1.43,1.78-4.37,1.68-1.69-.05-2.74-.75-2.95-2a11.49,11.49,0,0,1-.07-1.55l-.27-31.23v-.91c-2.8.43-4.94,2.07-5.1,4.17-.36,4.45-.64,8.9-.76,13.35,0,1.82.46,3.64.57,5.47a9,9,0,0,1-.3,3.26c-.41,1.32-1.73,1.83-3.86,1.77-1.6,0-2.76-.72-3-2a20.13,20.13,0,0,1-.53-4.28c0-4.36,0-8.73.27-13.08a16.15,16.15,0,0,1,2.38-7.84,8.71,8.71,0,0,1,4.1-3.34c1.76-.76,3.44-1.6,5.21-2.35.79-.33,1.13-.7,1.06-1.33a18.81,18.81,0,0,1,0-2.13c-1-.15-2-.28-3-.44-5.78-1-7.82-3.71-7.24-7.35.51-3.21,3-5.56,7.34-7,1.25-.41,2.53-.81,3.83-1.22l-.16-2.27c-1.92-.1-3.82-.13-5.7-.31-3.59-.33-5.18-1.23-5.58-4.17a12,12,0,0,1,.76-5.42c.87-2.51,3.44-4.06,7.22-4.73,4.24-.74,3.86-.48,3.73-3.32a6.84,6.84,0,0,1,.22-1.91c.3-1.23,1.15-1.81,2.63-1.91,1.91-.13,3.42.36,3.94,1.48a6.84,6.84,0,0,1,.43,2.41,8.09,8.09,0,0,1-.18,1.46c-.19,1.6-.16,1.56,2,2.22a29.26,29.26,0,0,1,3.78,1.43c1.88.89,3.12,2.13,3.12,3.68a19.77,19.77,0,0,1-.6,4.44,3.9,3.9,0,0,1-2.71,2.52c-1.74.64-3.54,1.24-5.38,1.76-.82.23-1.11.48-1.05,1.06s-.32,1.56.16,2.05,1.79.56,2.74.81c4.71,1.25,7.16,3.62,7.21,6.95,0,3.15-2.3,5.47-6.91,6.79C185.45,312.92,184.41,313.14,183.45,313.37Zm-5.16-22.43c1,0,2-.05,3-.11,3.8-.23,5.22-1.35,5-3.88-.06-.82-.58-1.43-1.72-1.7a21,21,0,0,0-10.38.05,3,3,0,0,0-2.4,2.94c.18,1.18,1.24,2.06,3.1,2.38C176,290.8,177.13,290.84,178.29,290.94Zm.29,17.75c1.45-.14,3.14-.2,4.75-.48,2.09-.36,3.06-1.27,3-2.47s-1.22-2.37-3.21-2.61a37.16,37.16,0,0,0-5.68-.3c-3.83.15-4.87.87-5.5,3.4-.32,1.26.2,1.86,2.07,2.11C175.43,308.53,176.89,308.57,178.58,308.69Z" transform="translate(-148.93 -255.72)"/><path class="cls-2" d="M186.83,415.11v1.1c.09,9.4.2,18.79.26,28.19a28.93,28.93,0,0,1-.27,4.74c-.2,1.33-1.26,1.91-3,1.94-2.2,0-3.65-.56-4.08-1.78a6,6,0,0,1-.29-1.81q-.42-15.89-.83-31.76c0-.12,0-.24-.07-.57-2.4.15-4.78.26-7.13.5a1.44,1.44,0,0,0-1,.95c-.43,2.88-.69,5.78-1.16,8.66q-1,6-2.21,12a4.71,4.71,0,0,1-1.46,2.22,4.93,4.93,0,0,1-4.47,1,2.15,2.15,0,0,1-1.87-2.44,34.33,34.33,0,0,1,.85-5,75.45,75.45,0,0,0,2.41-15.35c0-2.16.62-4.31.68-6.47a46.06,46.06,0,0,0-.35-7,13.45,13.45,0,0,1,1.78-8.95,7.51,7.51,0,0,1,4.31-3.27,40.63,40.63,0,0,1,10.54-1.73,48.44,48.44,0,0,1,12.33.45c5.46,1.08,8.57,3.7,8.67,7.5.15,5.62.3,11.23.26,16.85,0,5.18,1.09,10.26,2.34,15.34.61,2.5,1.19,5,1.73,7.5a2.84,2.84,0,0,1-.13,1.35c-.57,1.93-3.48,2.65-5.65,1.3a5.67,5.67,0,0,1-2.32-2.41,41.72,41.72,0,0,1-1.92-6.88c-.58-3-1-6.07-1.29-9.11-.2-2-.08-4-.1-6,0-.3,0-.6,0-1Zm-16.13-8.7,7.05-4.36-6.31-4.78C169.57,400.34,170.22,403.27,170.7,406.41Zm16.66-4.2,6.25,4.72V398Zm-12.88,7.57.32.23h12.66c-1.88-1.32-3.66-2.57-5.43-3.84a1.52,1.52,0,0,0-1.87,0Zm13.06-14.12h-8.72l3.83,3.08Z" transform="translate(-148.93 -255.72)"/><path class="cls-2" d="M226.13,398.08a4.73,4.73,0,0,1,.37,5.58,6.45,6.45,0,0,1-.95,1.3c-1.89,1.9-3.79,3.8-5.74,5.68a7.72,7.72,0,0,0-2.54,7.1c.38,2.64.37,5.3,1.55,7.86,1,2.17,3,3.16,6.32,3.18,1.54,0,2.51-.34,2.62-1.33a17.23,17.23,0,0,0,0-5.17c-.34-1.76-1.35-3.47-1.87-5.22a5.24,5.24,0,0,1-.17-3.05,29.07,29.07,0,0,1,2.65-5.74c2.32-3.8,7.2-5.6,12.73-6.7,2.23-.44,3.67.49,3.69,2.05s-.75,2.6-2.83,3.25a18.16,18.16,0,0,0-7.48,4.42,4.45,4.45,0,0,0-1.43,4.86c.94,2.82,1.88,5.64,2.59,8.49a5.41,5.41,0,0,1-.35,3.06,9.36,9.36,0,0,1-1.64,2.7C230,435,221,436,215.34,432.46a8.34,8.34,0,0,1-2.69-2.49A21.91,21.91,0,0,1,209,419.52c-.18-5.26,1.91-10.11,7.05-14.25.66-.53,1.27-1.11,1.92-1.66a2.37,2.37,0,0,0,.58-3.58,1.81,1.81,0,0,0-2.13-.72q-3,.6-6,1.15a7.1,7.1,0,0,1-4.49-.61c-4-1.88-6.22-4.43-6.27-7.7a15.53,15.53,0,0,1,.73-5.14c.94-2.79,3.77-4.59,7.65-5.68,2.14-.59,4.27-1.2,6.43-1.76,2.91-.75,4.54-2.17,4.61-4.22.09-2.58-.12-5.17-.14-7.76,0-1.82,0-3.65.17-5.47a3.69,3.69,0,0,1,3.31-2.54,3.09,3.09,0,0,1,2.86,1.32,10.28,10.28,0,0,1,1.13,3.81c.08,3.36-.16,6.71-.19,10.07a11.63,11.63,0,0,0,.47,2.9c.25.94,1.13,1.55,2.56,1.81,1.71.31,3.4.67,5.11,1,5.42,1,8.39,3.69,9.53,7.1,1.3,3.92-1.12,7.21-5.62,9.7-3.1,1.72-6.87,1.53-10.58,1.06C227.29,398.28,226.9,398.21,226.13,398.08ZM223.68,396c.62-2.15,2.22-2.9,5.58-2.62a11.87,11.87,0,0,0,2.3.09,4.89,4.89,0,0,0,2.07-.55c1.88-1.32,2.32-2.93,1.61-4.66s-2.15-2.58-4.61-2.87c-.85-.1-1.68-.25-2.53-.34-2.51-.27-4.9-.7-6.62-2.08,0,0-.17,0-.25,0a44.43,44.43,0,0,1-5.28,1.85c-1.37.4-2.81.7-4.19,1.08-3.82,1.07-5.24,2.57-5.08,5.33.17,2.92.7,3.29,5.11,3.25,4.09,0,8.22-.25,11.75,1.56A.76.76,0,0,0,223.68,396Z" transform="translate(-148.93 -255.72)"/><path class="cls-2" d="M177.7,387.54c-1.81-.14-4.27-.23-6.67-.53-3.07-.38-5-1.67-5.63-3.74a8.58,8.58,0,0,1,0-5.89c.67-1.69,2.2-2.92,4.58-3.65a48.14,48.14,0,0,1,15.41-1.93,51.19,51.19,0,0,1,8.06.78c3.91.72,5.22,2.07,5.18,4.75,0,1.06-.16,2.13-.28,3.19-.36,3.17-3.83,6.18-10.37,6.51C184.8,387.2,181.58,387.35,177.7,387.54Zm3.7-5.15,0-.14c1.05,0,2.11.06,3.14,0a37.58,37.58,0,0,0,4.42-.49c1.78-.33,2.62-1.28,2.71-2.47s-.95-1.63-2.22-2.1a9.88,9.88,0,0,0-4-.64c-2,.09-4,0-6,.08-1.73,0-3.46.09-5.18.19s-3,.84-2.92,1.87c0,.55.54,1.08.77,1.63a2.89,2.89,0,0,0,2.67,1.6C177,382.11,179.19,382.24,181.4,382.39Z" transform="translate(-148.93 -255.72)"/><path class="cls-2" d="M186.4,368.16l-18.93.72-1,0c-3.6.05-4.42-1.13-3.51-3.4.35-.86,1.34-1.3,2.63-1.35,6.41-.27,12.81-.62,19.22-.73,4.13-.07,8.28.15,12.4.39,2.87.16,4.17,1.6,3.25,3.27-.55,1-1.58,1.44-3.42,1.45H186.42Z" transform="translate(-148.93 -255.72)"/></g><g id="图层_3" data-name="图层 3"><text class="cls-3" transform="translate(120.95 173.84) scale(1 1.29)">香舍</text></g></svg>